<?xml version="1.0" encoding="utf-8"?>
<!-- Generator: Adobe Illustrator 16.0.3, SVG Export Plug-In . SVG Version: 6.00 Build 0)  -->
<!DOCTYPE svg PUBLIC "-//W3C//DTD SVG 1.1//EN" "http://www.w3.org/Graphics/SVG/1.1/DTD/svg11.dtd" [
	<!ENTITY ns_extend "http://ns.adobe.com/Extensibility/1.0/">
	<!ENTITY ns_ai "http://ns.adobe.com/AdobeIllustrator/10.0/">
	<!ENTITY ns_graphs "http://ns.adobe.com/Graphs/1.0/">
	<!ENTITY ns_vars "http://ns.adobe.com/Variables/1.0/">
	<!ENTITY ns_imrep "http://ns.adobe.com/ImageReplacement/1.0/">
	<!ENTITY ns_sfw "http://ns.adobe.com/SaveForWeb/1.0/">
	<!ENTITY ns_custom "http://ns.adobe.com/GenericCustomNamespace/1.0/">
	<!ENTITY ns_adobe_xpath "http://ns.adobe.com/XPath/1.0/">
]>
<svg version="1.1" id="Слой_1" xmlns:x="&ns_extend;" xmlns:i="&ns_ai;" xmlns:graph="&ns_graphs;"
	 xmlns="http://www.w3.org/2000/svg" xmlns:xlink="http://www.w3.org/1999/xlink" x="0px" y="0px" width="27px" height="20px"
	 viewBox="0 0 27 20" enable-background="new 0 0 27 20" xml:space="preserve">
<metadata>
	<sfw  xmlns="&ns_sfw;">
		<slices></slices>
		<sliceSourceBounds  height="1024" width="1440" y="-950" x="-1334" bottomLeftOrigin="true"></sliceSourceBounds>
	</sfw>
</metadata>
<g opacity="0.1744" enable-background="new    ">
	<g>
		<defs>
			<rect id="SVGID_1_" width="28" height="20"/>
		</defs>
		<clipPath id="SVGID_2_">
			<use xlink:href="#SVGID_1_"  overflow="visible"/>
		</clipPath>
		<g clip-path="url(#SVGID_2_)">
			<defs>
				<path id="SVGID_3_" d="M17.765,10.248L26.1,1.592v16.945L17.765,10.248z M9.87,10.907l2.485,2.581
					c0.319,0.307,0.729,0.462,1.14,0.462c0.416,0,0.833-0.158,1.162-0.475l2.473-2.568l8.207,8.162H1.659L9.87,10.907z
					 M9.236,10.248L0.9,18.537V1.592L9.236,10.248z M16.481,10.263l-2.451,2.545c-0.298,0.286-0.764,0.285-1.049,0.012l-2.463-2.557
					l0.022-0.022L1.641,0.93h23.723l-8.904,9.311L16.481,10.263z M0,0v1.065v17.869V20h27v-1.065V1.065V0H0z"/>
			</defs>
			<clipPath id="SVGID_4_">
				<use xlink:href="#SVGID_3_"  overflow="visible"/>
			</clipPath>
			<g clip-path="url(#SVGID_4_)">
				<defs>
					<rect id="SVGID_5_" width="27" height="20"/>
				</defs>
				<clipPath id="SVGID_6_">
					<use xlink:href="#SVGID_5_"  overflow="visible"/>
				</clipPath>
				<rect x="-5" y="-5" clip-path="url(#SVGID_6_)" width="37" height="30"/>
			</g>
		</g>
	</g>
</g>
<rect x="-1334" y="-54" fill="none" width="1440" height="1024"/>
</svg>
