<?xml version="1.0" encoding="utf-8"?>
<!-- Generator: Adobe Illustrator 16.0.3, SVG Export Plug-In . SVG Version: 6.00 Build 0)  -->
<!DOCTYPE svg PUBLIC "-//W3C//DTD SVG 1.1//EN" "http://www.w3.org/Graphics/SVG/1.1/DTD/svg11.dtd">
<svg version="1.1" id="Слой_1" xmlns="http://www.w3.org/2000/svg" xmlns:xlink="http://www.w3.org/1999/xlink" x="0px" y="0px"
	 width="78.14px" height="93px" viewBox="0 0 78.14 93" enable-background="new 0 0 78.14 93" xml:space="preserve">
<g>
	<defs>
		<rect id="SVGID_1_" x="8.5" y="6.005" width="69.64" height="86.995"/>
	</defs>
	<clipPath id="SVGID_2_">
		<use xlink:href="#SVGID_1_"  overflow="visible"/>
	</clipPath>
	<path clip-path="url(#SVGID_2_)" fill="none" stroke="#E5E5E5" stroke-linecap="round" stroke-linejoin="round" d="M10.432,52.657
		c4.815,4.938,13.682,16.597,17.998,24c4.315,7.403,10.933,12.975,21.843,12.975c10.911,0,18.371-5.388,20.097-12.975
		c1.725-7.586,2.802-28.955,6.862-43.411c1.532-5.455-1.674-6.325-2.603-6.356c-0.928-0.031-2.997,0.662-4.629,7.028
		c-1.631,6.367-3.974,14.114-4.707,14.199c-0.733,0.084-1.029,0.044,0-12.849c0.721-9.023,1.03-12.858,1.362-16.448
		c0.331-3.592-2.009-5.48-4.078-5.48c-2.07,0-3.772,1.164-4.14,5.451c-0.367,4.287-3.309,23.986-3.331,25.89
		c-0.022,1.904-0.709,1.824-1.361,1.523c-0.649-0.3-0.8-2.561-0.649-4.149c0.148-1.587-0.244-22.436,0.148-29.997
		c0.254-4.845-3.452-5.588-4.806-5.552s-4.355,0.628-4.403,5.243c-0.047,4.615-0.443,27.16-0.74,30.027
		c-0.297,2.866-0.459,2.905-1.343,2.905s-1.06-1.28-1.198-2.562c-0.138-1.282-1.264-20.775-1.848-25.553
		c-0.584-4.779-4.454-4.973-5.824-4.508c-1.369,0.466-3.522,1.316-3.074,7.241c0.448,5.924,1.128,29.452,1.183,33.358
		c0.056,3.905-2.094,4.262-3.912,3.133c-1.818-1.129-5.505-4.222-7.833-6.319c-2.82-2.54-7.314-2.702-9.014-1.405
		C8.137,49.816,8.953,51.14,10.432,52.657z"/>
	<path clip-path="url(#SVGID_2_)" fill="#A01D21" d="M46.75,89.5c0-1.243,1.008-2.25,2.25-2.25s2.25,1.007,2.25,2.25
		c0,1.242-1.008,2.25-2.25,2.25S46.75,90.742,46.75,89.5"/>
	<circle clip-path="url(#SVGID_2_)" fill="none" stroke="#FFFFFF" stroke-width="1.5" cx="49" cy="89.5" r="2.25"/>
	<circle clip-path="url(#SVGID_2_)" fill="none" stroke="#FFFFFF" cx="49" cy="89.5" r="3"/>
	<path clip-path="url(#SVGID_2_)" fill="#A01D21" d="M70.75,55.5c0-1.243,1.008-2.25,2.25-2.25s2.25,1.007,2.25,2.25
		c0,1.242-1.008,2.25-2.25,2.25S70.75,56.742,70.75,55.5"/>
	<circle clip-path="url(#SVGID_2_)" fill="none" stroke="#FFFFFF" stroke-width="1.5" cx="73" cy="55.5" r="2.25"/>
	<circle clip-path="url(#SVGID_2_)" fill="none" stroke="#FFFFFF" cx="73" cy="55.5" r="3"/>
	<path clip-path="url(#SVGID_2_)" fill="#A01D21" d="M31.75,12.5c0-1.243,1.007-2.25,2.25-2.25s2.25,1.007,2.25,2.25
		c0,1.243-1.007,2.25-2.25,2.25S31.75,13.743,31.75,12.5"/>
	<circle clip-path="url(#SVGID_2_)" fill="none" stroke="#FFFFFF" stroke-width="1.5" cx="34" cy="12.5" r="2.25"/>
	<circle clip-path="url(#SVGID_2_)" fill="none" stroke="#FFFFFF" cx="34" cy="12.5" r="3"/>
	<path clip-path="url(#SVGID_2_)" fill="#A01D21" d="M20.75,52.5c0-1.243,1.007-2.25,2.25-2.25s2.25,1.007,2.25,2.25
		c0,1.242-1.007,2.25-2.25,2.25S20.75,53.742,20.75,52.5"/>
	<circle clip-path="url(#SVGID_2_)" fill="none" stroke="#FFFFFF" stroke-width="1.5" cx="23" cy="52.5" r="2.25"/>
	<circle clip-path="url(#SVGID_2_)" fill="none" stroke="#FFFFFF" cx="23" cy="52.5" r="3"/>
</g>
<circle fill="none" stroke="#D60524" stroke-width="2" stroke-miterlimit="10" cx="8.5" cy="22.748" r="5.248"/>
</svg>
