<?xml version="1.0" encoding="utf-8"?>
<!-- Generator: Adobe Illustrator 16.0.3, SVG Export Plug-In . SVG Version: 6.00 Build 0)  -->
<!DOCTYPE svg PUBLIC "-//W3C//DTD SVG 1.1//EN" "http://www.w3.org/Graphics/SVG/1.1/DTD/svg11.dtd">
<svg version="1.1" id="Слой_1" xmlns="http://www.w3.org/2000/svg" xmlns:xlink="http://www.w3.org/1999/xlink" x="0px" y="0px"
	 width="111px" height="65px" viewBox="0 0 111 65" enable-background="new 0 0 111 65" xml:space="preserve">
<g>
	<path fill-rule="evenodd" clip-rule="evenodd" fill="#D1672A" d="M50.061,9.182c0.812-1.195,1.365-2.446,1.851-3.726
		c0.224-0.591,0.428-1.191,0.604-1.798c0.095-0.331,0.279-0.47,0.605-0.5c0.467-0.042,0.935-0.09,1.397-0.168
		c0.442-0.074,0.499,0.11,0.389,0.477c-0.545,1.82-1.202,3.598-2.011,5.317c-0.446,0.948-0.931,1.876-1.479,2.769
		c-0.16,0.261-0.189,0.476-0.044,0.752c0.328,0.623,0.64,1.255,0.933,1.896c0.184,0.401,0.31,0.396,0.549,0.03
		c1.664-2.537,2.996-5.235,3.978-8.104c0.292-0.854,0.56-1.717,0.791-2.589c0.095-0.354,0.241-0.409,0.569-0.348
		c1.765,0.328,1.774,0.323,1.271,2.01c-1.198,4.016-2.992,7.746-5.407,11.172c-0.205,0.291-0.255,0.516-0.031,0.821
		c0.374,0.509,0.715,1.042,1.06,1.573c0.208,0.321,0.344,0.315,0.578-0.008c2.799-3.853,4.883-8.055,6.22-12.627
		c0.076-0.26,0.153-0.52,0.224-0.782c0.198-0.737,0.197-0.738,0.83-0.356c1.356,0.816,1.36,0.818,0.904,2.308
		c-1.469,4.798-3.727,9.197-6.733,13.208c-0.286,0.382-0.286,0.634,0.031,0.963c0.363,0.376,0.707,0.774,1.03,1.186
		c0.285,0.364,0.476,0.301,0.728-0.042c1.349-1.839,2.581-3.749,3.666-5.756c1.465-2.711,2.64-5.542,3.536-8.49
		c0.049-0.16,0.034-0.407,0.252-0.431c0.172-0.02,0.244,0.191,0.346,0.311c1.302,1.543,1.313,1.549,0.623,3.425
		c-1.755,4.768-4.198,9.154-7.35,13.14c-0.264,0.333-0.378,0.661-0.373,1.083c0.019,1.808-0.002,3.617,0.017,5.425
		c0.004,0.372-0.088,0.522-0.479,0.495c-0.557-0.04-1.28,0.173-1.629-0.104c-0.371-0.295-0.11-1.05-0.117-1.603
		c-0.018-1.537-0.012-3.074-0.001-4.611c0.002-0.31-0.084-0.544-0.299-0.774c-4.81-5.154-8.151-11.139-10.085-17.917
		c-0.245-0.857-0.25-0.856,0.472-1.359c1.235-0.861,1.219-0.857,1.622,0.578C49.395,7.084,49.738,8.13,50.061,9.182z"/>
	<path fill-rule="evenodd" clip-rule="evenodd" fill="#3E3E3F" d="M45.604,44.703c1.12,0.069,2.52-0.151,3.896,0.108
		c2.792,0.527,4.623,3.032,4.389,5.952c-0.214,2.67-2.508,4.824-5.245,4.917c-0.469,0.017-0.94,0.025-1.408,0.003
		c-0.352-0.017-0.473,0.104-0.468,0.462c0.018,1.266-0.01,2.531,0.017,3.797c0.009,0.416-0.123,0.525-0.522,0.506
		c-0.667-0.033-1.336-0.025-2.004-0.003c-0.34,0.012-0.431-0.115-0.427-0.439c0.015-1.229-0.024-2.459,0.02-3.688
		c0.02-0.544-0.159-0.663-0.667-0.642c-0.845,0.036-1.692,0.049-2.524-0.199c-2.633-0.783-4.273-3.314-3.902-6.058
		c0.357-2.65,2.632-4.669,5.33-4.714C43.169,44.688,44.253,44.703,45.604,44.703z M46.769,50.169c0,0.703,0.008,1.407-0.004,2.11
		c-0.005,0.285,0.061,0.438,0.388,0.422c0.449-0.022,0.901,0.012,1.351-0.012c1.364-0.07,2.427-1.17,2.426-2.492
		c0-1.332-1.052-2.417-2.424-2.487c-0.432-0.021-0.866,0.014-1.296-0.015c-0.37-0.024-0.459,0.129-0.448,0.472
		C46.784,48.834,46.768,49.502,46.769,50.169z M43.836,50.248c0-0.722-0.008-1.444,0.004-2.166c0.005-0.274-0.08-0.391-0.369-0.378
		c-0.504,0.022-1.011-0.011-1.513,0.029c-1.241,0.099-2.196,1.116-2.251,2.363c-0.054,1.233,0.831,2.329,2.052,2.547
		c0.538,0.096,1.08,0.021,1.619,0.058c0.348,0.024,0.481-0.084,0.466-0.45C43.818,51.584,43.837,50.915,43.836,50.248z"/>
	<path fill-rule="evenodd" clip-rule="evenodd" fill="#3E3E3F" d="M70.967,48.748c-0.676,0.808-1.313,1.565-1.946,2.326
		c-0.856,1.027-1.728,2.043-2.557,3.092c-0.308,0.391-0.453,0.336-0.741-0.02c-1.366-1.685-2.76-3.347-4.148-5.013
		c-0.109-0.131-0.181-0.311-0.441-0.386c0,0.213,0,0.403,0,0.593c0,3.509-0.007,7.018,0.01,10.526
		c0.002,0.433-0.083,0.614-0.557,0.582c-0.629-0.043-1.265-0.031-1.896-0.003c-0.378,0.018-0.494-0.101-0.491-0.484
		c0.018-2.044,0.008-4.087,0.008-6.131c0-2.876,0.009-5.751-0.01-8.627c-0.002-0.41,0.113-0.526,0.518-0.511
		c0.812,0.031,1.626,0.024,2.438,0.002c0.325-0.01,0.523,0.107,0.722,0.356c1.291,1.629,2.608,3.238,3.894,4.871
		c0.271,0.344,0.402,0.331,0.664-0.002c1.288-1.632,2.604-3.241,3.895-4.87c0.199-0.252,0.398-0.364,0.724-0.355
		c0.83,0.022,1.662,0.022,2.492,0c0.345-0.009,0.469,0.078,0.469,0.447c-0.012,4.955-0.011,9.91-0.002,14.866
		c0,0.327-0.089,0.448-0.427,0.437c-0.668-0.022-1.338-0.032-2.005,0.003c-0.407,0.021-0.52-0.103-0.516-0.51
		c0.02-2.08,0.009-4.16,0.009-6.239c0-1.429,0.004-2.857-0.001-4.286C71.069,49.222,71.122,49.02,70.967,48.748z"/>
	<path fill-rule="evenodd" clip-rule="evenodd" fill="#3E3E3F" d="M34.777,60.438c-0.955,0-1.873-0.006-2.792,0.004
		c-0.271,0.003-0.318-0.19-0.39-0.373c-0.376-0.958-0.761-1.914-1.122-2.879c-0.105-0.28-0.253-0.385-0.556-0.383
		c-1.861,0.013-3.722,0.013-5.583,0c-0.3-0.002-0.45,0.096-0.556,0.38c-0.359,0.966-0.756,1.917-1.116,2.882
		c-0.105,0.281-0.248,0.386-0.552,0.376c-0.704-0.022-1.41-0.028-2.113,0.002c-0.463,0.021-0.554-0.081-0.373-0.535
		c1.181-2.972,2.337-5.953,3.5-8.932c0.763-1.952,1.531-3.902,2.276-5.861c0.125-0.328,0.288-0.437,0.63-0.425
		c0.758,0.025,1.518,0.021,2.276,0.001c0.28-0.008,0.412,0.088,0.512,0.345c1.951,5.019,3.91,10.032,5.866,15.048
		C34.722,60.186,34.738,60.291,34.777,60.438z M27.203,48.501c-0.042-0.005-0.084-0.011-0.126-0.016
		c-0.636,1.717-1.274,3.433-1.905,5.15c-0.099,0.27,0.116,0.246,0.273,0.246c1.134,0.003,2.269-0.003,3.403,0.003
		c0.259,0.001,0.302-0.077,0.212-0.32C28.435,51.879,27.82,50.189,27.203,48.501z"/>
	<path fill-rule="evenodd" clip-rule="evenodd" fill="#3E3E3F" d="M85.761,44.702c1.567,0,1.56,0.003,2.132,1.472
		c1.758,4.51,3.521,9.018,5.282,13.526c0.289,0.739,0.289,0.739-0.531,0.739c-0.614-0.001-1.229-0.02-1.842,0.007
		c-0.328,0.015-0.479-0.107-0.59-0.409c-0.352-0.948-0.746-1.88-1.095-2.829c-0.112-0.306-0.271-0.404-0.591-0.401
		c-1.824,0.015-3.649,0.018-5.474-0.001c-0.364-0.004-0.546,0.101-0.672,0.451c-0.335,0.935-0.725,1.85-1.068,2.78
		c-0.111,0.301-0.264,0.421-0.592,0.41c-0.722-0.025-1.446-0.031-2.167-0.001c-0.466,0.021-0.444-0.142-0.306-0.495
		c1.62-4.117,3.228-8.24,4.837-12.361c0.31-0.791,0.646-1.573,0.912-2.379c0.142-0.43,0.367-0.56,0.789-0.516
		C85.107,44.729,85.436,44.702,85.761,44.702z M85.772,48.3c-0.682,1.853-1.305,3.56-1.939,5.262
		c-0.121,0.326,0.063,0.321,0.282,0.321c1.1-0.001,2.198-0.007,3.297,0.004c0.312,0.004,0.372-0.09,0.264-0.381
		C87.05,51.817,86.438,50.123,85.772,48.3z"/>
	<path fill-rule="evenodd" clip-rule="evenodd" fill="#3E3E3F" d="M97.227,52.558c0-2.458,0.009-4.915-0.008-7.373
		c-0.003-0.396,0.09-0.529,0.506-0.523c1.751,0.023,3.502-0.01,5.253,0.017c1.927,0.03,3.601,0.64,4.44,2.515
		c0.897,2.003,0.835,4.028-0.456,5.872c-0.862,1.229-2.194,1.655-3.636,1.729c-0.918,0.046-1.841,0.03-2.761,0.007
		c-0.369-0.01-0.451,0.119-0.447,0.463c0.016,1.554-0.005,3.108,0.016,4.662c0.005,0.393-0.084,0.549-0.507,0.523
		c-0.63-0.036-1.265-0.034-1.895,0c-0.41,0.021-0.518-0.114-0.515-0.519C97.235,57.473,97.227,55.015,97.227,52.558z
		 M100.151,49.754c0,0.615,0.001,1.229-0.001,1.845c0,0.191,0.002,0.366,0.272,0.361c0.885-0.018,1.776,0.041,2.651-0.056
		c1.31-0.144,2.011-1.017,1.961-2.279c-0.044-1.107-0.979-2.017-2.184-2.074c-0.775-0.036-1.553-0.003-2.329-0.02
		c-0.284-0.006-0.383,0.098-0.376,0.378C100.16,48.524,100.15,49.139,100.151,49.754z"/>
	<path fill-rule="evenodd" clip-rule="evenodd" fill="#3E3E3F" d="M11.903,44.497c1.07,0.008,2.608,0.493,4,1.462
		c0.317,0.222,0.425,0.367,0.074,0.672c-0.463,0.402-0.894,0.846-1.303,1.303c-0.261,0.292-0.455,0.313-0.809,0.114
		c-2.986-1.684-6.707-0.125-7.577,3.152c-0.542,2.04,0.157,4.242,1.813,5.487c1.791,1.347,3.723,1.47,5.695,0.433
		c0.428-0.226,0.646-0.181,0.939,0.156c0.391,0.448,0.815,0.872,1.258,1.271c0.307,0.276,0.246,0.412-0.062,0.636
		c-2.759,2-6.83,1.925-9.581-0.193c-2.773-2.137-3.875-5.694-2.779-8.97C4.675,46.721,7.768,44.506,11.903,44.497z"/>
	<path fill-rule="evenodd" clip-rule="evenodd" fill="#D1672A" d="M55.029,28.843c0.001,0.831-0.011,1.663,0.007,2.494
		c0.007,0.331-0.058,0.505-0.442,0.478c-0.431-0.031-0.869-0.036-1.298,0.001c-0.438,0.039-0.501-0.159-0.496-0.536
		c0.019-1.337,0-2.674,0.014-4.011c0.003-0.329-0.09-0.581-0.305-0.831c-3.911-4.533-6.835-9.639-8.909-15.254
		c-0.341-0.923-0.337-1.645,0.351-2.341c0.297-0.301,0.469-0.928,0.863-0.862c0.302,0.051,0.308,0.703,0.435,1.092
		c1.526,4.67,3.699,9.011,6.599,12.981c0.884,1.21,1.812,2.386,2.821,3.494c0.26,0.285,0.387,0.57,0.37,0.965
		C55.007,27.288,55.029,28.066,55.029,28.843z"/>
	<path fill-rule="evenodd" clip-rule="evenodd" fill="#D1672A" d="M41.827,13.221c0.227,0.528,0.391,0.903,0.549,1.282
		c1.551,3.718,3.524,7.197,5.927,10.427c0.273,0.368,0.269,0.575-0.121,0.795c-0.156,0.088-0.291,0.213-0.434,0.323
		c-0.891,0.687-0.891,0.687-1.563-0.25c-1.709-2.381-3.172-4.906-4.54-7.499c-0.572-1.084-0.455-2.119-0.304-3.203
		C41.421,14.513,41.521,13.924,41.827,13.221z"/>
	<path fill-rule="evenodd" clip-rule="evenodd" fill="#D1672A" d="M69.374,13.362c0.405,1.287,0.626,2.563,0.551,3.864
		c-0.023,0.403-0.312,0.798-0.504,1.185c-1.388,2.785-3.011,5.424-4.848,7.936c-0.237,0.324-0.396,0.323-0.673,0.088
		c-0.424-0.36-1.111-0.624-1.237-1.06c-0.121-0.415,0.523-0.871,0.829-1.309c2.239-3.209,4.108-6.618,5.566-10.252
		C69.116,13.669,69.133,13.493,69.374,13.362z"/>
	<path fill-rule="evenodd" clip-rule="evenodd" fill="#FEFEFD" d="M46.768,50.169c0-0.667,0.016-1.335-0.007-2.002
		c-0.012-0.343,0.078-0.496,0.448-0.472c0.43,0.028,0.865-0.007,1.296,0.015c1.372,0.07,2.423,1.155,2.424,2.487
		c0,1.322-1.063,2.422-2.426,2.492c-0.449,0.023-0.901-0.011-1.351,0.012c-0.327,0.017-0.393-0.137-0.388-0.422
		C46.777,51.576,46.769,50.872,46.768,50.169z"/>
	<path fill-rule="evenodd" clip-rule="evenodd" fill="#FEFEFD" d="M43.836,50.248c0,0.667-0.019,1.336,0.008,2.003
		c0.015,0.366-0.119,0.475-0.466,0.45c-0.539-0.037-1.081,0.038-1.619-0.058c-1.222-0.218-2.106-1.313-2.052-2.547
		c0.055-1.247,1.01-2.265,2.251-2.363c0.502-0.04,1.009-0.007,1.513-0.029c0.289-0.013,0.375,0.104,0.369,0.378
		C43.828,48.804,43.836,49.526,43.836,50.248z"/>
	<path fill-rule="evenodd" clip-rule="evenodd" fill="#FEFEFD" d="M27.203,48.501c0.618,1.688,1.232,3.378,1.858,5.063
		c0.09,0.243,0.046,0.321-0.212,0.32c-1.134-0.006-2.269,0-3.403-0.003c-0.157,0-0.372,0.023-0.273-0.246
		c0.631-1.718,1.269-3.434,1.905-5.15C27.119,48.49,27.161,48.496,27.203,48.501z"/>
	<path fill-rule="evenodd" clip-rule="evenodd" fill="#FEFEFD" d="M85.772,48.3c0.665,1.823,1.277,3.518,1.903,5.206
		c0.108,0.291,0.048,0.385-0.264,0.381c-1.099-0.011-2.197-0.005-3.297-0.004c-0.22,0-0.403,0.005-0.282-0.321
		C84.468,51.859,85.091,50.152,85.772,48.3z"/>
	<path fill-rule="evenodd" clip-rule="evenodd" fill="#FEFEFD" d="M100.151,49.754c-0.001-0.615,0.009-1.229-0.005-1.845
		c-0.007-0.28,0.092-0.384,0.376-0.378c0.776,0.017,1.554-0.017,2.329,0.02c1.205,0.058,2.14,0.967,2.184,2.074
		c0.05,1.263-0.651,2.136-1.961,2.279c-0.875,0.097-1.767,0.038-2.651,0.056c-0.271,0.005-0.272-0.17-0.272-0.361
		C100.152,50.983,100.151,50.369,100.151,49.754z"/>
</g>
</svg>
