<?xml version="1.0" encoding="utf-8"?>
<!-- Generator: Adobe Illustrator 16.0.3, SVG Export Plug-In . SVG Version: 6.00 Build 0)  -->
<!DOCTYPE svg PUBLIC "-//W3C//DTD SVG 1.1//EN" "http://www.w3.org/Graphics/SVG/1.1/DTD/svg11.dtd">
<svg version="1.1" id="Слой_1" xmlns="http://www.w3.org/2000/svg" xmlns:xlink="http://www.w3.org/1999/xlink" x="0px" y="0px"
	 width="28px" height="67.095px" viewBox="0 0 28 67.095" enable-background="new 0 0 28 67.095" xml:space="preserve">
<g>
	<defs>
		<rect id="SVGID_1_" y="0" width="28" height="67.095"/>
	</defs>
	<clipPath id="SVGID_2_">
		<use xlink:href="#SVGID_1_"  overflow="visible"/>
	</clipPath>
	
		<line clip-path="url(#SVGID_2_)" fill="none" stroke="#E5E5E5" stroke-linecap="round" stroke-linejoin="round" x1="24.438" y1="23.938" x2="24.438" y2="0.5"/>
	
		<line clip-path="url(#SVGID_2_)" fill="none" stroke="#E5E5E5" stroke-linecap="round" stroke-linejoin="round" x1="24.438" y1="66.595" x2="24.438" y2="43.156"/>
	
		<line clip-path="url(#SVGID_2_)" fill="none" stroke="#E5E5E5" stroke-linecap="round" stroke-linejoin="round" x1="24.28" y1="1.009" x2="3.143" y2="33.489"/>
	
		<line clip-path="url(#SVGID_2_)" fill="none" stroke="#E5E5E5" stroke-linecap="round" stroke-linejoin="round" x1="24.263" y1="66.187" x2="2.913" y2="33.438"/>
	<path clip-path="url(#SVGID_2_)" fill="#A01D21" d="M5.75,33.279c0-1.243-1.008-2.25-2.25-2.25s-2.25,1.007-2.25,2.25
		c0,1.242,1.008,2.25,2.25,2.25S5.75,34.521,5.75,33.279"/>
	<circle clip-path="url(#SVGID_2_)" fill="none" stroke="#FFFFFF" stroke-width="1.5" cx="3.5" cy="33.279" r="2.25"/>
	<circle clip-path="url(#SVGID_2_)" fill="none" stroke="#FFFFFF" cx="3.5" cy="33.279" r="3"/>
	<path clip-path="url(#SVGID_2_)" fill="#A01D21" d="M26.75,44.279c0-1.243-1.008-2.25-2.25-2.25s-2.25,1.007-2.25,2.25
		c0,1.241,1.008,2.25,2.25,2.25S26.75,45.521,26.75,44.279"/>
	<circle clip-path="url(#SVGID_2_)" fill="none" stroke="#FFFFFF" stroke-width="1.5" cx="24.5" cy="44.279" r="2.25"/>
	<circle clip-path="url(#SVGID_2_)" fill="none" stroke="#FFFFFF" cx="24.5" cy="44.279" r="3"/>
	<path clip-path="url(#SVGID_2_)" fill="#A01D21" d="M26.75,23.279c0-1.243-1.008-2.25-2.25-2.25s-2.25,1.007-2.25,2.25
		c0,1.243,1.008,2.25,2.25,2.25S26.75,24.522,26.75,23.279"/>
	<circle clip-path="url(#SVGID_2_)" fill="none" stroke="#FFFFFF" stroke-width="1.5" cx="24.5" cy="23.279" r="2.25"/>
	<circle clip-path="url(#SVGID_2_)" fill="none" stroke="#FFFFFF" cx="24.5" cy="23.279" r="3"/>
</g>
</svg>
