<?xml version="1.0" encoding="utf-8"?>
<!-- Generator: Adobe Illustrator 16.0.3, SVG Export Plug-In . SVG Version: 6.00 Build 0)  -->
<!DOCTYPE svg PUBLIC "-//W3C//DTD SVG 1.1//EN" "http://www.w3.org/Graphics/SVG/1.1/DTD/svg11.dtd">
<svg version="1.1" id="product-1" xmlns="http://www.w3.org/2000/svg" xmlns:xlink="http://www.w3.org/1999/xlink" x="0px" y="0px"
	 width="85px" height="74.164px" viewBox="0 0 85 74.164" enable-background="new 0 0 85 74.164" xml:space="preserve">
<g>
	<defs>
		<rect id="SVGID_1_product-1" y="0" width="85" height="74.163"/>
	</defs>
	<clipPath id="SVGID_2_product-2">
		<use xlink:href="#SVGID_1_product-1"  overflow="visible"/>
	</clipPath>
	<path clip-path="url(#SVGID_2_product-2)" fill="none" stroke="#E5E5E5" stroke-linecap="round" stroke-linejoin="round" d="M70.361,56.305
		v5.402c0,1.105-0.896,2-2,2H2.5c-1.105,0-2-0.895-2-2V17.471c0-1.105,0.895-2,2-2h4.702"/>
	<path clip-path="url(#SVGID_2_product-2)" fill="none" stroke="#E5E5E5" stroke-linecap="round" stroke-linejoin="round" d="M77.184,48.833
		v5.223c0,1.104-0.896,2-2,2H9.322c-1.104,0-2-0.896-2-2V9.817c0-1.105,0.896-2,2-2h5.196"/>
	<path clip-path="url(#SVGID_2_product-2)" fill="none" stroke="#E5E5E5" stroke-linecap="round" stroke-linejoin="round" d="M16.639,0.5
		H82.5c1.104,0,2,0.896,2,2v44.237c0,1.105-0.896,2-2,2h-5.371h-60.49c-1.104,0-2-0.895-2-2V7.871V2.5
		C14.639,1.396,15.535,0.5,16.639,0.5z"/>
	<path clip-path="url(#SVGID_2_product-2)" fill="none" stroke="#E5E5E5" stroke-linecap="round" stroke-linejoin="round" d="M28.365,63.708
		c-0.425,4.443-0.685,6.834-0.777,7.171c-0.139,0.505-0.54,0.733-0.709,0.855c-0.168,0.122-2.139,1.344-2.254,1.571
		c-0.115,0.228,1.51,0.357,2.56,0.357h8.713"/>
	<path clip-path="url(#SVGID_2_product-2)" fill="none" stroke="#E5E5E5" stroke-linecap="round" stroke-linejoin="round" d="M42.132,63.708
		c0.426,4.443,0.686,6.834,0.777,7.171c0.139,0.505,0.54,0.733,0.709,0.855c0.168,0.122,2.139,1.344,2.254,1.571
		s-1.509,0.357-2.56,0.357h-8.713"/>
	<path clip-path="url(#SVGID_2_product-2)" fill="none" stroke="#E5E5E5" stroke-linecap="round" stroke-linejoin="round" d="M22.5,6.5h14
		c0.552,0,1,0.448,1,1v34c0,0.552-0.448,1-1,1h-14c-0.552,0-1-0.448-1-1v-34C21.5,6.948,21.948,6.5,22.5,6.5z"/>
	<path clip-path="url(#SVGID_2_product-2)" fill="none" stroke="#E5E5E5" stroke-linecap="round" stroke-linejoin="round" d="M42.5,6.5h14
		c0.553,0,1,0.448,1,1v34c0,0.552-0.447,1-1,1h-14c-0.552,0-1-0.448-1-1v-34C41.5,6.948,41.948,6.5,42.5,6.5z"/>
	<path clip-path="url(#SVGID_2_product-2)" fill="none" stroke="#E5E5E5" stroke-linecap="round" stroke-linejoin="round" d="M62.5,6.5h14
		c0.553,0,1,0.448,1,1v34c0,0.552-0.447,1-1,1h-14c-0.553,0-1-0.448-1-1v-34C61.5,6.948,61.947,6.5,62.5,6.5z"/>
	<path clip-path="url(#SVGID_2_product-2)" fill="#A01D21" d="M68.25,55.5c0-1.243,1.008-2.25,2.25-2.25s2.25,1.007,2.25,2.25
		c0,1.241-1.008,2.25-2.25,2.25S68.25,56.742,68.25,55.5"/>
	<circle clip-path="url(#SVGID_2_product-2)" fill="none" stroke="#FFFFFF" stroke-width="1.5" cx="70.5" cy="55.5" r="2.25"/>
	<circle clip-path="url(#SVGID_2_product-2)" fill="none" stroke="#FFFFFF" cx="70.5" cy="55.5" r="3"/>
	<path clip-path="url(#SVGID_2_product-2)" fill="#A01D21" d="M5.25,55.5c0-1.243,1.007-2.25,2.25-2.25s2.25,1.007,2.25,2.25
		c0,1.241-1.007,2.25-2.25,2.25S5.25,56.742,5.25,55.5"/>
	<circle clip-path="url(#SVGID_2_product-2)" fill="none" stroke="#FFFFFF" stroke-width="1.5" cx="7.5" cy="55.5" r="2.25"/>
	<circle clip-path="url(#SVGID_2_product-2)" fill="none" stroke="#FFFFFF" cx="7.5" cy="55.5" r="3"/>
	<path clip-path="url(#SVGID_2_product-2)" fill="#A01D21" d="M33.25,63.5c0-1.243,1.007-2.25,2.25-2.25s2.25,1.007,2.25,2.25
		c0,1.241-1.007,2.25-2.25,2.25S33.25,64.742,33.25,63.5"/>
	<circle clip-path="url(#SVGID_2_product-2)" fill="none" stroke="#FFFFFF" stroke-width="1.5" cx="35.5" cy="63.5" r="2.25"/>
	<circle clip-path="url(#SVGID_2_product-2)" fill="none" stroke="#FFFFFF" cx="35.5" cy="63.5" r="3"/>
	<path clip-path="url(#SVGID_2_product-2)" fill="#A01D21" d="M75.25,7c0-1.243,1.008-2.25,2.25-2.25S79.75,5.757,79.75,7
		c0,1.243-1.008,2.25-2.25,2.25S75.25,8.243,75.25,7"/>
	<circle clip-path="url(#SVGID_2_product-2)" fill="none" stroke="#FFFFFF" stroke-width="1.5" cx="77.5" cy="7" r="2.25"/>
	<circle clip-path="url(#SVGID_2_product-2)" fill="none" stroke="#FFFFFF" cx="77.5" cy="7" r="3"/>
	<path clip-path="url(#SVGID_2_product-2)" fill="#A01D21" d="M19.25,7c0-1.243,1.007-2.25,2.25-2.25S23.75,5.757,23.75,7
		c0,1.243-1.007,2.25-2.25,2.25S19.25,8.243,19.25,7"/>
	<circle clip-path="url(#SVGID_2_product-2)" fill="none" stroke="#FFFFFF" stroke-width="1.5" cx="21.5" cy="7" r="2.25"/>
	<circle clip-path="url(#SVGID_2_product-2)" fill="none" stroke="#FFFFFF" cx="21.5" cy="7" r="3"/>
</g>
</svg>
