<?xml version="1.0" encoding="utf-8"?>
<!-- Generator: Adobe Illustrator 16.0.3, SVG Export Plug-In . SVG Version: 6.00 Build 0)  -->
<!DOCTYPE svg PUBLIC "-//W3C//DTD SVG 1.1//EN" "http://www.w3.org/Graphics/SVG/1.1/DTD/svg11.dtd">
<svg version="1.1" id="Слой_1" xmlns="http://www.w3.org/2000/svg" xmlns:xlink="http://www.w3.org/1999/xlink" x="0px" y="0px"
	 width="90px" height="89px" viewBox="0 0 90 89" enable-background="new 0 0 90 89" xml:space="preserve">
<g>
	<defs>
		<rect id="SVGID_1_" width="90" height="89"/>
	</defs>
	<clipPath id="SVGID_2_">
		<use xlink:href="#SVGID_1_"  overflow="visible"/>
	</clipPath>
	<path clip-path="url(#SVGID_2_)" fill="none" stroke="#E5E5E5" stroke-linecap="round" stroke-linejoin="round" d="M20.5,49.814
		V6.33c0-3.387,2.863-5.83,5.759-5.83h25.032c2.839,0,5.894,2.607,5.894,5.83v19.293 M57.185,61.47v14.607
		c0,3.376-3.3,4.949-5.382,4.949H25.908c-2.666,0-5.408-2.523-5.408-5.382v-7.691"/>
	<path clip-path="url(#SVGID_2_)" fill="none" stroke="#E5E5E5" stroke-linecap="round" stroke-linejoin="round" d="M20.5,11.237
		c0-2.08,1.968-3.579,4.864-3.579h26.822c2.839,0,4.999,1.6,4.999,3.579"/>
	<path clip-path="url(#SVGID_2_)" fill="none" stroke="#E5E5E5" stroke-linecap="round" stroke-linejoin="round" d="M36.158,2.75
		h6.263c0.741,0,1.342,0.601,1.342,1.342c0,0.741-0.601,1.342-1.342,1.342h-6.263c-0.741,0-1.342-0.601-1.342-1.342
		C34.816,3.351,35.417,2.75,36.158,2.75z"/>
	
		<circle clip-path="url(#SVGID_2_)" fill="none" stroke="#E5E5E5" stroke-linecap="round" stroke-linejoin="round" cx="57.185" cy="43.447" r="17.895"/>
	
		<circle clip-path="url(#SVGID_2_)" fill="none" stroke="#E5E5E5" stroke-linecap="round" stroke-linejoin="round" cx="57.185" cy="43.447" r="11.921"/>
	<path clip-path="url(#SVGID_2_)" fill="none" stroke="#E5E5E5" stroke-linecap="round" stroke-linejoin="round" d="M9.763,56.001
		c8.039-4.699,12.802-7.474,14.291-8.323c2.233-1.274,3.982-0.545,5.031,1.035c1.049,1.579,0.916,4.369-1.095,5.694
		c-1.34,0.884-3.713,2.298-7.118,4.241c0.163,0.381,0.595,1.248,1.295,2.597c1.05,2.026,1.721,4.735-2.737,7.337
		c-2.972,1.733-5.545,3.21-7.72,4.428"/>
	<path clip-path="url(#SVGID_2_)" fill="none" stroke="#E5E5E5" stroke-linecap="round" stroke-linejoin="round" d="M20.74,38.974
		c-5.554,2.78-9.678,4.954-12.371,6.521C4.329,47.846,3.5,51.976,3.5,54.9v21.568"/>
	
		<line clip-path="url(#SVGID_2_)" fill="none" stroke="#E5E5E5" stroke-linecap="round" stroke-linejoin="round" x1="22.386" y1="79.635" x2="12.448" y2="85.415"/>
	<path clip-path="url(#SVGID_2_)" fill="none" stroke="#E5E5E5" stroke-linecap="round" stroke-linejoin="round" d="M44.424,31.146
		l-10.731-10.73L44.424,31.146z"/>
	<path clip-path="url(#SVGID_2_)" fill="none" stroke="#E5E5E5" stroke-linecap="round" stroke-linejoin="round" d="M44.314,56.011
		L33.191,67.134L44.314,56.011z"/>
	
		<circle clip-path="url(#SVGID_2_)" fill="none" stroke="#E5E5E5" stroke-linecap="round" stroke-linejoin="round" cx="31.5" cy="18.5" r="3"/>
	
		<circle clip-path="url(#SVGID_2_)" fill="none" stroke="#E5E5E5" stroke-linecap="round" stroke-linejoin="round" cx="31.5" cy="69.5" r="3"/>
	<polyline clip-path="url(#SVGID_2_)" fill="none" stroke="#E5E5E5" stroke-linecap="round" stroke-linejoin="round" points="
		69.702,30.642 75.011,25.334 82.383,25.334 	"/>
	<polyline clip-path="url(#SVGID_2_)" fill="none" stroke="#E5E5E5" stroke-linecap="round" stroke-linejoin="round" points="
		69.789,56.476 75.011,61.697 82.404,61.697 	"/>
	
		<line clip-path="url(#SVGID_2_)" fill="none" stroke="#E5E5E5" stroke-linecap="round" stroke-linejoin="round" x1="75.087" y1="43.391" x2="86.13" y2="43.391"/>
	<circle clip-path="url(#SVGID_2_)" fill="none" stroke="#A01D21" stroke-width="1.5" cx="83.5" cy="25.5" r="2.25"/>
	<circle clip-path="url(#SVGID_2_)" fill="none" stroke="#A01D21" cx="83.5" cy="25.5" r="3"/>
	<circle clip-path="url(#SVGID_2_)" fill="none" stroke="#A01D21" stroke-width="1.5" cx="86.5" cy="43.5" r="2.25"/>
	<circle clip-path="url(#SVGID_2_)" fill="none" stroke="#A01D21" cx="86.5" cy="43.5" r="3"/>
	<circle clip-path="url(#SVGID_2_)" fill="none" stroke="#A01D21" stroke-width="1.5" cx="83.5" cy="61.5" r="2.25"/>
	<circle clip-path="url(#SVGID_2_)" fill="none" stroke="#A01D21" cx="83.5" cy="61.5" r="3"/>
	<circle clip-path="url(#SVGID_2_)" fill="none" stroke="#A01D21" stroke-width="1.5" cx="57.5" cy="31.5" r="2.25"/>
	<circle clip-path="url(#SVGID_2_)" fill="none" stroke="#A01D21" cx="57.5" cy="31.5" r="3"/>
	<circle clip-path="url(#SVGID_2_)" fill="none" stroke="#A01D21" stroke-width="1.5" cx="57.5" cy="55.5" r="2.25"/>
	<circle clip-path="url(#SVGID_2_)" fill="none" stroke="#A01D21" cx="57.5" cy="55.5" r="3"/>
	<circle clip-path="url(#SVGID_2_)" fill="none" stroke="#A01D21" stroke-width="1.5" cx="11.5" cy="85.5" r="2.25"/>
	<circle clip-path="url(#SVGID_2_)" fill="none" stroke="#A01D21" cx="11.5" cy="85.5" r="3"/>
	<circle clip-path="url(#SVGID_2_)" fill="none" stroke="#A01D21" stroke-width="1.5" cx="3.5" cy="75.5" r="2.25"/>
	<circle clip-path="url(#SVGID_2_)" fill="none" stroke="#A01D21" cx="3.5" cy="75.5" r="3"/>
</g>
</svg>
